<svg width="94" height="152" viewBox="0 0 94 152" fill="none" xmlns="http://www.w3.org/2000/svg">
<path d="M6.9205 142.273V151H5.8977L1.1421 144.148H1.0568V151H0V142.273H1.0227L5.7955 149.142H5.8807V142.273H6.9205ZM13.0238 148.324V144.455H14.0295V151H13.0238V149.892H12.9556C12.8022 150.224 12.5636 150.507 12.2397 150.74C11.9159 150.97 11.5068 151.085 11.0124 151.085C10.6034 151.085 10.2397 150.996 9.9215 150.817C9.6034 150.635 9.3534 150.362 9.1715 149.999C8.9897 149.632 8.8988 149.17 8.8988 148.614V144.455H9.9045V148.545C9.9045 149.023 10.038 149.403 10.3051 149.688C10.5749 149.972 10.9187 150.114 11.3363 150.114C11.5863 150.114 11.8406 150.05 12.0991 149.922C12.3605 149.794 12.5792 149.598 12.7553 149.334C12.9343 149.07 13.0238 148.733 13.0238 148.324ZM11.0124 143.568L12.0522 141.591H13.2284L11.8988 143.568H11.0124ZM15.8715 151V144.455H16.8431V145.477H16.9283C17.0646 145.128 17.2848 144.857 17.5888 144.663C17.8928 144.467 18.2578 144.369 18.684 144.369C19.1158 144.369 19.4752 144.467 19.7621 144.663C20.0519 144.857 20.2777 145.128 20.4396 145.477H20.5078C20.6754 145.139 20.9269 144.871 21.2621 144.672C21.5973 144.47 21.9993 144.369 22.4681 144.369C23.0533 144.369 23.532 144.553 23.9041 144.919C24.2763 145.283 24.4624 145.849 24.4624 146.619V151H23.4567V146.619C23.4567 146.136 23.3246 145.791 23.0604 145.584C22.7962 145.376 22.4851 145.273 22.1271 145.273C21.6669 145.273 21.3104 145.412 21.0575 145.69C20.8047 145.966 20.6783 146.315 20.6783 146.739V151H19.6556V146.517C19.6556 146.145 19.5348 145.845 19.2933 145.618C19.0519 145.388 18.7408 145.273 18.3601 145.273C18.0987 145.273 17.8544 145.342 17.6271 145.482C17.4027 145.621 17.2209 145.814 17.0817 146.061C16.9453 146.305 16.8771 146.588 16.8771 146.909V151H15.8715ZM29.0455 151.136C28.4148 151.136 27.8708 150.997 27.4134 150.719C26.9588 150.438 26.608 150.045 26.3608 149.543C26.1165 149.037 25.9943 148.449 25.9943 147.778C25.9943 147.108 26.1165 146.517 26.3608 146.006C26.608 145.491 26.9517 145.091 27.3921 144.804C27.8352 144.514 28.3523 144.369 28.9432 144.369C29.2841 144.369 29.6208 144.426 29.9531 144.54C30.2855 144.653 30.5881 144.838 30.8608 145.094C31.1335 145.347 31.3509 145.682 31.5128 146.099C31.6747 146.517 31.7557 147.031 31.7557 147.642V148.068H26.7102V147.199H30.733C30.733 146.83 30.6591 146.5 30.5114 146.21C30.3665 145.92 30.1591 145.692 29.8892 145.524C29.6222 145.357 29.3068 145.273 28.9432 145.273C28.5426 145.273 28.196 145.372 27.9034 145.571C27.6137 145.767 27.3906 146.023 27.2344 146.338C27.0781 146.653 27 146.991 27 147.352V147.932C27 148.426 27.0852 148.845 27.2557 149.189C27.429 149.53 27.6691 149.79 27.9759 149.969C28.2827 150.145 28.6392 150.233 29.0455 150.233C29.3097 150.233 29.5483 150.196 29.7614 150.122C29.9773 150.045 30.1634 149.932 30.3196 149.781C30.4759 149.628 30.5966 149.437 30.6818 149.21L31.6534 149.483C31.5512 149.812 31.3793 150.102 31.1378 150.352C30.8963 150.599 30.598 150.793 30.2429 150.932C29.8878 151.068 29.4887 151.136 29.0455 151.136ZM33.2855 151V144.455H34.2571V145.443H34.3253C34.4446 145.119 34.6605 144.857 34.973 144.655C35.2855 144.453 35.6378 144.352 36.0298 144.352C36.1037 144.352 36.196 144.354 36.3068 144.357C36.4176 144.359 36.5014 144.364 36.5583 144.369V145.392C36.5242 145.384 36.446 145.371 36.3239 145.354C36.2046 145.334 36.0781 145.324 35.9446 145.324C35.6264 145.324 35.3423 145.391 35.0923 145.524C34.8452 145.655 34.6492 145.837 34.5043 146.07C34.3622 146.3 34.2912 146.562 34.2912 146.858V151H33.2855ZM40.2102 151.136C39.6193 151.136 39.1009 150.996 38.6548 150.714C38.2117 150.433 37.8651 150.04 37.6151 149.534C37.3679 149.028 37.2443 148.437 37.2443 147.761C37.2443 147.08 37.3679 146.484 37.6151 145.976C37.8651 145.467 38.2117 145.072 38.6548 144.791C39.1009 144.51 39.6193 144.369 40.2102 144.369C40.8012 144.369 41.3182 144.51 41.7614 144.791C42.2074 145.072 42.554 145.467 42.8012 145.976C43.0512 146.484 43.1762 147.08 43.1762 147.761C43.1762 148.437 43.0512 149.028 42.8012 149.534C42.554 150.04 42.2074 150.433 41.7614 150.714C41.3182 150.996 40.8012 151.136 40.2102 151.136ZM40.2102 150.233C40.6591 150.233 41.0284 150.118 41.3182 149.888C41.608 149.658 41.8225 149.355 41.9617 148.98C42.1009 148.605 42.1705 148.199 42.1705 147.761C42.1705 147.324 42.1009 146.916 41.9617 146.538C41.8225 146.161 41.608 145.855 41.3182 145.622C41.0284 145.389 40.6591 145.273 40.2102 145.273C39.7614 145.273 39.3921 145.389 39.1023 145.622C38.8125 145.855 38.598 146.161 38.4588 146.538C38.3196 146.916 38.25 147.324 38.25 147.761C38.25 148.199 38.3196 148.605 38.4588 148.98C38.598 149.355 38.8125 149.658 39.1023 149.888C39.3921 150.118 39.7614 150.233 40.2102 150.233ZM50.5579 151.136C50.0124 151.136 49.5309 150.999 49.1133 150.723C48.6957 150.445 48.369 150.053 48.1332 149.547C47.8974 149.038 47.7795 148.438 47.7795 147.744C47.7795 147.057 47.8974 146.46 48.1332 145.955C48.369 145.449 48.6971 145.058 49.1176 144.783C49.538 144.507 50.0238 144.369 50.5749 144.369C51.0011 144.369 51.3377 144.44 51.5849 144.582C51.8349 144.722 52.0252 144.881 52.1559 145.06C52.2894 145.236 52.3931 145.381 52.467 145.494H52.5522V142.273H53.5579V151H52.5863V149.994H52.467C52.3931 150.114 52.288 150.264 52.1517 150.446C52.0153 150.625 51.8207 150.786 51.5678 150.928C51.315 151.067 50.9784 151.136 50.5579 151.136ZM50.6943 150.233C51.0977 150.233 51.4386 150.128 51.717 149.918C51.9954 149.705 52.207 149.411 52.3519 149.036C52.4968 148.658 52.5693 148.222 52.5693 147.727C52.5693 147.239 52.4982 146.811 52.3562 146.445C52.2142 146.075 52.0039 145.788 51.7255 145.584C51.4471 145.376 51.1034 145.273 50.6943 145.273C50.2681 145.273 49.913 145.382 49.6289 145.601C49.3477 145.817 49.136 146.111 48.994 146.483C48.8548 146.852 48.7852 147.267 48.7852 147.727C48.7852 148.193 48.8562 148.616 48.9982 148.997C49.1431 149.375 49.3562 149.676 49.6374 149.901C49.9215 150.122 50.2738 150.233 50.6943 150.233ZM57.4656 151.153C57.0508 151.153 56.6744 151.075 56.3363 150.919C55.9982 150.76 55.7298 150.531 55.5309 150.233C55.332 149.932 55.2326 149.568 55.2326 149.142C55.2326 148.767 55.3065 148.463 55.4542 148.23C55.6019 147.994 55.7994 147.81 56.0465 147.676C56.2937 147.543 56.5664 147.443 56.8647 147.378C57.1659 147.31 57.4684 147.256 57.7724 147.216C58.1702 147.165 58.4922 147.126 58.7402 147.101C58.9902 147.072 59.1712 147.026 59.2852 146.96C59.4012 146.895 59.4602 146.781 59.4602 146.619V146.585C59.4602 146.165 59.3452 145.838 59.1152 145.605C58.8872 145.372 58.5422 145.256 58.0792 145.256C57.5991 145.256 57.2227 145.361 56.9499 145.571C56.6772 145.781 56.4855 146.006 56.3747 146.244L55.4201 145.903C55.5906 145.506 55.8178 145.196 56.1019 144.974C56.3889 144.75 56.7014 144.594 57.0394 144.506C57.3803 144.415 57.7156 144.369 58.0452 144.369C58.2552 144.369 58.4972 144.395 58.7692 144.446C59.0452 144.494 59.3112 144.595 59.5662 144.749C59.8252 144.902 60.0392 145.134 60.2102 145.443C60.3802 145.753 60.4652 146.168 60.4652 146.688V151H59.4602V150.114H59.4092C59.3402 150.256 59.2272 150.408 59.0682 150.57C58.9092 150.732 58.6972 150.869 58.4332 150.983C58.1682 151.097 57.8463 151.153 57.4656 151.153ZM57.619 150.25C58.0172 150.25 58.3522 150.172 58.6242 150.016C58.9002 149.859 59.1072 149.658 59.2472 149.411C59.3892 149.163 59.4602 148.903 59.4602 148.631V147.71C59.4172 147.761 59.3232 147.808 59.1782 147.851C59.0362 147.891 58.8722 147.926 58.6842 147.957C58.4992 147.986 58.3192 148.011 58.1432 148.034C57.9702 148.054 57.8292 148.071 57.7213 148.085C57.4599 148.119 57.2156 148.175 56.9883 148.251C56.7639 148.325 56.582 148.437 56.4428 148.588C56.3065 148.736 56.2383 148.937 56.2383 149.193C56.2383 149.543 56.3676 149.807 56.6261 149.986C56.8874 150.162 57.2184 150.25 57.619 150.25ZM70.3122 145.92L69.4092 146.176C69.3522 146.026 69.2682 145.879 69.1572 145.737C69.0502 145.592 68.9022 145.473 68.7142 145.379C68.5272 145.286 68.2872 145.239 67.9942 145.239C67.5942 145.239 67.2602 145.331 66.9932 145.516C66.7292 145.697 66.5962 145.929 66.5962 146.21C66.5962 146.46 66.6872 146.658 66.8692 146.803C67.0512 146.947 67.3352 147.068 67.7212 147.165L68.6932 147.403C69.2782 147.545 69.7142 147.763 70.0012 148.055C70.2882 148.345 70.4322 148.719 70.4322 149.176C70.4322 149.551 70.3242 149.886 70.1082 150.182C69.8952 150.477 69.5962 150.71 69.2132 150.881C68.8292 151.051 68.3832 151.136 67.8752 151.136C67.2072 151.136 66.6552 150.991 66.2172 150.702C65.7802 150.412 65.5032 149.989 65.3862 149.432L66.3412 149.193C66.4322 149.545 66.6042 149.81 66.8562 149.986C67.1122 150.162 67.4462 150.25 67.8582 150.25C68.3272 150.25 68.6992 150.151 68.9742 149.952C69.2532 149.75 69.3922 149.509 69.3922 149.227C69.3922 149 69.3122 148.81 69.1532 148.656C68.9942 148.5 68.7502 148.384 68.4202 148.307L67.3292 148.051C66.7302 147.909 66.2902 147.689 66.0082 147.391C65.7302 147.089 65.5912 146.713 65.5912 146.261C65.5912 145.892 65.6942 145.565 65.9022 145.281C66.1122 144.997 66.3982 144.774 66.7582 144.612C67.1222 144.45 67.5342 144.369 67.9942 144.369C68.6422 144.369 69.1502 144.511 69.5202 144.795C69.8922 145.08 70.1562 145.455 70.3122 145.92ZM74.6052 151.136C74.0142 151.136 73.4952 150.996 73.0492 150.714C72.6062 150.433 72.2592 150.04 72.0092 149.534C71.7622 149.028 71.6392 148.437 71.6392 147.761C71.6392 147.08 71.7622 146.484 72.0092 145.976C72.2592 145.467 72.6062 145.072 73.0492 144.791C73.4952 144.51 74.0142 144.369 74.6052 144.369C75.1952 144.369 75.7132 144.51 76.1562 144.791C76.6022 145.072 76.9482 145.467 77.1952 145.976C77.4452 146.484 77.5702 147.08 77.5702 147.761C77.5702 148.437 77.4452 149.028 77.1952 149.534C76.9482 150.04 76.6022 150.433 76.1562 150.714C75.7132 150.996 75.1952 151.136 74.6052 151.136ZM74.6052 150.233C75.0532 150.233 75.4232 150.118 75.7132 149.888C76.0022 149.658 76.2172 149.355 76.3562 148.98C76.4952 148.605 76.5652 148.199 76.5652 147.761C76.5652 147.324 76.4952 146.916 76.3562 146.538C76.2172 146.161 76.0022 145.855 75.7132 145.622C75.4232 145.389 75.0532 145.273 74.6052 145.273C74.1562 145.273 73.7862 145.389 73.4972 145.622C73.2072 145.855 72.9922 146.161 72.8532 146.538C72.7142 146.916 72.6442 147.324 72.6442 147.761C72.6442 148.199 72.7142 148.605 72.8532 148.98C72.9922 149.355 73.2072 149.658 73.4972 149.888C73.7862 150.118 74.1562 150.233 74.6052 150.233ZM79.1062 151V144.455H80.0772V145.443H80.1452C80.2652 145.119 80.4812 144.857 80.7932 144.655C81.1062 144.453 81.4582 144.352 81.8502 144.352C81.9242 144.352 82.0162 144.354 82.1272 144.357C82.2382 144.359 82.3222 144.364 82.3782 144.369V145.392C82.3442 145.384 82.2662 145.371 82.1442 145.354C82.0252 145.334 81.8982 145.324 81.7652 145.324C81.4472 145.324 81.1622 145.391 80.9122 145.524C80.6652 145.655 80.4692 145.837 80.3242 146.07C80.1822 146.3 80.1112 146.562 80.1112 146.858V151H79.1062ZM86.8272 144.455V145.307H83.4352V144.455H86.8272ZM84.4242 142.886H85.4302V149.125C85.4302 149.409 85.4712 149.622 85.5532 149.764C85.6382 149.903 85.7462 149.997 85.8772 150.045C86.0102 150.091 86.1512 150.114 86.2992 150.114C86.4102 150.114 86.5012 150.108 86.5722 150.097C86.6432 150.082 86.6992 150.071 86.7422 150.062L86.9472 150.966C86.8782 150.991 86.7832 151.017 86.6612 151.043C86.5392 151.071 86.3842 151.085 86.1972 151.085C85.9122 151.085 85.6342 151.024 85.3612 150.902C85.0912 150.78 84.8672 150.594 84.6882 150.344C84.5122 150.094 84.4242 149.778 84.4242 149.398V142.886ZM91.0142 151.136C90.3832 151.136 89.8392 150.997 89.3822 150.719C88.9272 150.438 88.5772 150.045 88.3292 149.543C88.0852 149.037 87.9632 148.449 87.9632 147.778C87.9632 147.108 88.0852 146.517 88.3292 146.006C88.5772 145.491 88.9202 145.091 89.3612 144.804C89.8042 144.514 90.3212 144.369 90.9122 144.369C91.2532 144.369 91.5892 144.426 91.9222 144.54C92.2542 144.653 92.5572 144.838 92.8292 145.094C93.1022 145.347 93.3192 145.682 93.4812 146.099C93.6432 146.517 93.7242 147.031 93.7242 147.642V148.068H88.6792V147.199H92.7022C92.7022 146.83 92.6282 146.5 92.4802 146.21C92.3352 145.92 92.1282 145.692 91.8582 145.524C91.5912 145.357 91.2752 145.273 90.9122 145.273C90.5112 145.273 90.1652 145.372 89.8722 145.571C89.5822 145.767 89.3592 146.023 89.2032 146.338C89.0472 146.653 88.9692 146.991 88.9692 147.352V147.932C88.9692 148.426 89.0542 148.845 89.2242 149.189C89.3982 149.53 89.6382 149.79 89.9442 149.969C90.2512 150.145 90.6082 150.233 91.0142 150.233C91.2782 150.233 91.5172 150.196 91.7302 150.122C91.9462 150.045 92.1322 149.932 92.2882 149.781C92.4442 149.628 92.5652 149.437 92.6502 149.21L93.6222 149.483C93.5202 149.812 93.3482 150.102 93.1062 150.352C92.8652 150.599 92.5672 150.793 92.2112 150.932C91.8562 151.068 91.4572 151.136 91.0142 151.136Z" fill="#00AB37"/>
<path fill-rule="evenodd" clip-rule="evenodd" d="M69.7202 42.0358C58.2002 39.8091 49.4006 37.6891 47.4673 37.2091L47.454 37.0625L47.4406 37.0225C49.4673 36.5958 59.4142 34.7025 70.2002 35.6891C89.6672 37.4758 87.4142 11.2358 71.9072 15.7958C77.5472 1.0091 55.734 -4.9242 51.9873 14.4491C49.7473 26.0491 47.6006 34.8758 47.1473 36.7292C47.1073 36.7158 47.0673 36.7158 47.0273 36.7158L46.974 36.7292C46.5606 34.7158 44.654 24.7692 45.6406 13.9692C47.4273 -5.49751 21.1873 -3.24422 25.7473 12.2624C10.9473 6.6224 5.02731 28.4224 24.4006 32.1691C35.9873 34.4224 44.814 36.5558 46.6806 37.0091C46.6673 37.0491 46.654 37.1025 46.6673 37.1425V37.1958C44.614 37.6225 34.6806 39.5158 23.9073 38.5291C4.45401 36.7425 6.69401 62.9824 22.2006 58.4224C16.5606 73.2091 38.374 79.1291 42.1206 59.7558C44.1073 49.5558 46.0006 41.4891 46.734 38.4358C47.0406 44.4491 46.4273 50.4758 45.1873 56.3424C43.8673 62.6491 41.8806 68.8091 39.8006 74.9425C37.6273 81.0358 35.6273 87.4225 34.8006 94.009C33.9073 100.596 34.054 107.382 35.3473 113.969V113.982L35.3606 114.049C35.6006 115.076 36.6273 115.716 37.654 115.476C38.694 115.223 39.334 114.196 39.094 113.169C37.654 107.036 37.254 100.676 37.8673 94.369C38.1606 91.209 38.694 88.0625 39.4273 84.9558C40.1473 81.8358 41.094 78.7824 42.0273 75.6491C43.8806 69.4091 45.6406 63.1025 46.7206 56.6358C47.6006 51.4625 48.0006 46.1958 47.7606 40.9558C48.4006 45.2225 49.174 52.5158 48.4673 60.2491C46.6806 79.7024 72.9342 77.4625 68.3742 61.9558C83.1602 67.5958 89.0942 45.7825 69.7202 42.0358Z" fill="#00AB37"/>
</svg>
